# xmcd
#
# Track frame offsets: 
#        150
#        16330
#        35042
#        53966
#        70616
#        92553
#        114190
#        135490
#        150190
#        168490
#        189302
#        204152
#        225877
#        241341
#        251788
#        267350
#        283717
#        303404
#        316112
#
# Disc length: 4470 seconds
#
# Revision: 0
# Processed by: cddbd v1.5.1PL0 Copyright (c) Steve Scherf et al.
# Submitted via: ExactAudioCopy v0.95a5
#
DISCID=ed117413
DTITLE=Chrome Daddies - Drunk and Mis-behavin'
DYEAR=2003
DGENRE=Alt. Country
TTITLE0=Brand New Caddilac
TTITLE1=Catty Town
TTITLE2=Cherokee Boogie
TTITLE3=Warm Beer
TTITLE4=Cowgirl Mama
TTITLE5=Crazy Blues
TTITLE6=Dearest Darlin
TTITLE7=Gear Up Daddy
TTITLE8=Hot Rod Man
TTITLE9=I Hung It Up
TTITLE10=Married Man
TTITLE11=No Mercy
TTITLE12=Please Please Baby
TTITLE13=Saturday Night
TTITLE14=Thats Alright Mama
TTITLE15=Train Kept A Rollin
TTITLE16=Virginia Belle
TTITLE17=Waitin For The Axe To Fall
TTITLE18=Tell Me Mama
EXTD=
EXTT0=
EXTT1=
EXTT2=
EXTT3=
EXTT4=
EXTT5=
EXTT6=
EXTT7=
EXTT8=
EXTT9=
EXTT10=
EXTT11=
EXTT12=
EXTT13=
EXTT14=
EXTT15=
EXTT16=
EXTT17=
EXTT18=
PLAYORDER=
